<svg width="50" height="50" viewBox="0 0 50 50" fill="none" xmlns="http://www.w3.org/2000/svg">
<g clip-path="url(#clip0)">
<path d="M22.9425 12.624C23.8863 13.921 24.3582 15.468 24.3582 17.2776C24.3582 19.1371 23.8863 20.6372 22.93 21.7685C22.3925 22.3967 21.608 22.978 20.5704 23.4999C22.1456 24.0687 23.3332 24.9657 24.1426 26.1908C24.9427 27.4159 25.3458 28.9066 25.3458 30.6568C25.3458 32.4632 24.8864 34.0852 23.9676 35.5165C23.3863 36.4635 22.655 37.2667 21.7799 37.9136C20.7955 38.6574 19.6329 39.1668 18.289 39.445C16.9451 39.72 15.4919 39.8544 13.923 39.8544H0V9.37378H14.9325C18.7015 9.43003 21.3674 10.5114 22.9425 12.624ZM6.15988 14.668V21.3935H13.673C15.0106 21.3935 16.1013 21.1404 16.942 20.6372C17.7765 20.134 18.1984 19.2402 18.1984 17.962C18.1984 16.5369 17.6452 15.6024 16.5389 15.143C15.5825 14.8274 14.3637 14.668 12.8854 14.668H6.15988ZM6.15988 26.4377V34.5665H13.6636C15.0044 34.5665 16.0513 34.3883 16.7951 34.0289C18.1515 33.3601 18.8265 32.0975 18.8265 30.2224C18.8265 28.6316 18.1734 27.544 16.8608 26.9502C16.1232 26.6221 15.0919 26.4471 13.7668 26.4377H6.15988ZM44.0255 17.7745C45.6225 18.4777 46.9351 19.5902 47.9696 21.1091C48.9134 22.4499 49.5197 24.0031 49.7947 25.7689C49.9572 26.8002 50.0197 28.2972 49.9947 30.2442H33.3465C33.4465 32.5038 34.2341 34.0914 35.7404 34.9978C36.653 35.5634 37.7468 35.8478 39.0376 35.8478C40.3939 35.8478 41.5003 35.504 42.3503 34.8165C42.8191 34.4415 43.2285 33.9258 43.5817 33.2664H49.6822C49.5197 34.6008 48.779 35.9603 47.4695 37.3417C45.4225 39.5294 42.5566 40.6263 38.8719 40.6263C35.8279 40.6263 33.1465 39.7044 30.8244 37.8542C28.493 36.0072 27.3335 32.9976 27.3335 28.8316C27.3335 24.9251 28.3836 21.9279 30.4806 19.8434C32.5839 17.7651 35.3029 16.7181 38.65 16.7181C40.644 16.715 42.4347 17.0682 44.0255 17.7745ZM35.0904 22.8655C34.2466 23.725 33.7153 24.8876 33.4965 26.3533H43.7942C43.6848 24.7875 43.1504 23.6031 42.2035 22.7874C41.244 21.9779 40.0658 21.5748 38.6563 21.5748C37.128 21.5779 35.9342 22.0092 35.0904 22.8655ZM31.9526 14.5898H45.1943V10.7958H31.9526V14.5898Z" fill="#1976D2"/>
</g>
<defs>
<clipPath id="clip0">
<rect width="50" height="50" fill="white"/>
</clipPath>
</defs>
</svg>
