<svg width="25" height="16" viewBox="0 0 25 16" fill="none" xmlns="http://www.w3.org/2000/svg">
<path d="M0.780641 15.6128H8.16238C12.9004 15.6128 14.5439 9.32918 10.3555 7.07469C13.1668 4.62452 11.4265 0 7.65445 0H0.780641C0.349727 0 0 0.349727 0 0.780641V14.8322C0 15.2631 0.349727 15.6128 0.780641 15.6128V15.6128ZM1.56128 1.56128H7.65445C10.9966 1.56128 11.0008 6.52408 7.65445 6.52408H1.56128V1.56128ZM1.56128 8.08536H8.16238C12.1811 8.08536 12.1811 14.0515 8.16238 14.0515H1.56128V8.08536Z" fill="black"/>
<path d="M19.125 4.01465C15.7329 4.01465 13.1349 7.02064 13.2598 9.38442C13.0027 12.7984 15.7548 15.6129 19.125 15.6129C21.2192 15.6129 23.1719 14.5044 24.22 12.7183C24.7436 11.8263 23.3967 11.0394 22.8742 11.9272C22.105 13.2377 20.6676 14.0516 19.125 14.0516C16.8487 14.0516 14.9981 12.3155 14.8315 10.1265C16.3335 10.1442 19.1365 9.93087 24.1857 10.0922C24.2023 10.0922 24.2138 10.0839 24.2294 10.0839C26.3111 9.9902 24.0327 4.01465 19.125 4.01465ZM15.0366 8.48824C16.3751 4.54444 22.029 4.66206 23.2489 8.55486C19.0189 8.65582 16.4875 8.48616 15.0366 8.48824Z" fill="black"/>
<path d="M22.1786 2.5647C23.2121 2.5647 23.2111 1.00342 22.1786 1.00342H16.0687C15.0352 1.00342 15.0362 2.5647 16.0687 2.5647H22.1786Z" fill="black"/>
</svg>
