<svg width="23" height="22" viewBox="0 0 23 22" fill="none" xmlns="http://www.w3.org/2000/svg">
<path d="M0.14451 9.53659C-0.604083 14.2264 1.49082 19.8826 7.95044 21.9694C8.06576 21.9904 8.17243 22 8.27237 22C9.02384 22 9.54084 21.4436 9.54084 20.7573C9.44763 20.2573 9.90889 18.2317 8.65675 18.5042C6.23608 19.0165 5.94587 17.6716 5.57685 16.968C6.62046 18.3006 8.18876 18.2671 9.37171 17.7509C10.0281 17.4641 9.68499 16.7338 9.99634 16.4671C10.473 16.0599 10.2308 15.2789 9.60523 15.211C7.38155 14.9672 5.3222 14.2541 5.3222 10.7162C5.3222 8.64376 6.76845 8.45831 6.36965 7.59128C6.35524 7.55973 6.04965 6.87051 6.32641 5.82376C7.69002 6.07422 8.31753 7.04735 8.97195 6.87242C10.5931 6.43269 12.3776 6.43269 13.9978 6.87242C14.6743 7.05309 15.1577 6.10672 16.6289 5.81803C17.0527 7.39914 16.1744 7.78533 16.7279 8.37705C17.3352 9.02708 17.6437 9.81381 17.6437 10.7162C17.6437 16.035 13.1108 14.4988 12.7418 15.7062C12.6573 15.9815 12.7466 16.2788 12.9676 16.4633C13.5538 16.9536 13.477 18.2126 13.4145 19.2249C13.3501 20.2745 13.2944 21.1798 13.8777 21.6903C14.0833 21.8719 14.4495 22.066 15.1116 21.9321C21.4866 19.895 23.5969 14.2637 22.8598 9.58439C20.8457 -3.19447 2.17407 -3.17918 0.14451 9.53659ZM8.0917 20.0308L8.09555 20.5135C7.59296 20.3405 7.12017 20.1407 6.67812 19.918C7.08653 20.0222 7.55548 20.0671 8.0917 20.0308ZM8.44726 16.4938C8.44246 16.5187 8.43765 16.5445 8.43285 16.5703C7.61314 16.8112 6.98275 16.5713 6.55224 15.8515C6.55224 15.8505 6.55224 15.8505 6.55127 15.8496C7.20473 16.1975 7.87837 16.3849 8.44726 16.4938ZM11.4993 1.44752C22.8704 1.44752 25.4352 16.9976 14.8329 20.5097C14.7964 20.2258 14.83 19.6905 14.8531 19.3129C14.9088 18.4038 14.9741 17.3446 14.6484 16.4594C19.5378 15.4471 19.9462 10.1063 18.0637 7.72702C18.2972 6.81698 18.203 4.67856 17.3631 4.41664C17.1651 4.3545 16.109 4.12603 14.0603 5.40794C12.3872 5.01027 10.5816 5.00931 8.90852 5.40794C7.88606 4.77033 5.58166 3.73315 5.13961 4.83438C4.62646 6.11724 4.7485 7.15442 4.90129 7.73084C3.23017 9.83771 3.73084 13.3651 5.41445 15.0208C4.46021 14.5667 3.14561 14.4118 2.86212 15.3209C2.55173 16.3122 3.73853 16.1918 4.47559 18.0013C4.54574 18.2269 4.67547 18.4917 4.87439 18.7546C-1.67076 13.4349 1.48698 1.44752 11.4993 1.44752Z" fill="white"/>
</svg>
