<svg width="20" height="20" viewBox="0 0 20 20" fill="none" xmlns="http://www.w3.org/2000/svg">
<path d="M3.95833 20H16.0417C18.2242 20 20 18.2242 20 16.0417V3.95833C20 1.77583 18.2242 0 16.0417 0H3.95833C1.77583 0 0 1.77583 0 3.95833V16.0417C0 18.2242 1.77583 20 3.95833 20ZM1.25 3.95833C1.25 2.465 2.465 1.25 3.95833 1.25H16.0417C17.535 1.25 18.75 2.465 18.75 3.95833V16.0417C18.75 17.535 17.535 18.75 16.0417 18.75H3.95833C2.465 18.75 1.25 17.535 1.25 16.0417V3.95833Z" fill="white"/>
<path d="M9.99994 15.1083C12.8166 15.1083 15.1083 12.8166 15.1083 9.99994C15.1083 7.18327 12.8166 4.8916 9.99994 4.8916C7.18327 4.8916 4.8916 7.18327 4.8916 9.99994C4.8916 12.8166 7.18327 15.1083 9.99994 15.1083ZM9.99994 6.1416C12.1274 6.1416 13.8583 7.87244 13.8583 9.99994C13.8583 12.1274 12.1274 13.8583 9.99994 13.8583C7.87244 13.8583 6.1416 12.1274 6.1416 9.99994C6.1416 7.87244 7.87244 6.1416 9.99994 6.1416Z" fill="white"/>
<path d="M15.2984 6.13493C16.1201 6.13493 16.7392 5.51827 16.7392 4.70077C16.7392 3.84827 16.0876 3.2666 15.2992 3.2666C14.4776 3.2666 13.8584 3.88327 13.8584 4.70077C13.8584 5.5516 14.5067 6.13493 15.2984 6.13493ZM15.4459 4.56327C15.7092 4.79577 15.1084 5.07827 15.1084 4.7016C15.1084 4.4766 15.4142 4.53493 15.4459 4.56327Z" fill="white"/>
</svg>
