<svg width="22" height="14" viewBox="0 0 22 14" fill="none" xmlns="http://www.w3.org/2000/svg">
<path d="M11.1328 14C14.3154 14 13.1806 11.9485 13.4263 11.3587C13.4226 10.9181 13.4189 10.4944 13.4336 10.2368C13.6353 10.2947 14.111 10.5401 15.0937 11.5127C16.6107 13.0713 16.9985 14 18.2241 14H20.4799C21.1949 14 21.5671 13.6985 21.7532 13.4456C21.9328 13.2011 22.1088 12.7717 21.9163 12.1035C21.4131 10.4944 18.478 7.71587 18.2955 7.4228C18.323 7.36867 18.367 7.2968 18.39 7.25947H18.3881C18.9675 6.48013 21.1784 3.10707 21.5038 1.75747C21.5048 1.7556 21.5057 1.7528 21.5057 1.75C21.6817 1.134 21.5203 0.734533 21.3535 0.508667C21.1024 0.1708 20.7027 0 20.1628 0H17.9069C17.1516 0 16.5787 0.387333 16.289 1.09387C15.8041 2.3492 14.4419 4.9308 13.4208 5.84453C13.3896 4.55 13.4107 3.5616 13.4272 2.82707C13.4602 1.3944 13.5665 0 12.1063 0H8.56066C7.64583 0 6.77043 1.01733 7.71825 2.22507C8.54691 3.28347 8.01616 3.87333 8.19491 6.8096C7.49825 6.04893 6.25893 3.99467 5.38261 1.3692C5.13694 0.658933 4.76478 0.000933266 3.71704 0.000933266H1.46115C0.546327 0.000933266 0 0.508667 0 1.35893C0 3.26853 4.15154 14 11.1328 14ZM3.71704 1.40093C3.91596 1.40093 3.93612 1.40093 4.0837 1.82747C4.98111 4.51827 6.99409 8.49987 8.46441 8.49987C9.56898 8.49987 9.56898 7.3472 9.56898 6.9132L9.56806 3.458C9.50756 2.31467 9.09873 1.74533 8.83015 1.4L12.0458 1.40373C12.0476 1.4196 12.0275 5.22573 12.055 6.14787C12.055 7.45733 13.0761 8.20773 14.6702 6.56507C16.3522 4.63213 17.5155 1.74253 17.5622 1.62493C17.631 1.45693 17.6906 1.4 17.9069 1.4H20.1628H20.1719C20.171 1.4028 20.171 1.4056 20.1701 1.4084C19.9639 2.3884 17.928 5.51133 17.2469 6.48107C17.2359 6.496 17.2258 6.51187 17.2157 6.52773C16.916 7.02613 16.6722 7.5768 17.257 8.35147H17.2579C17.3111 8.4168 17.4495 8.56987 17.6511 8.78267C18.2781 9.4416 20.4286 11.6947 20.6193 12.5907C20.4928 12.6112 20.3553 12.5963 18.2241 12.6009C17.7703 12.6009 17.4156 11.9103 16.0617 10.5196C14.8443 9.31373 14.0542 8.82093 13.3346 8.82093C11.9376 8.82093 12.0394 9.97547 12.0522 11.3717C12.0568 12.8856 12.0476 12.4068 12.0577 12.502C11.9761 12.5347 11.7424 12.6 11.1328 12.6C5.31661 12.6 1.52898 3.2004 1.38323 1.40373C1.43365 1.39907 2.12756 1.40187 3.71704 1.40093Z" fill="white"/>
</svg>
