<svg width="21" height="22" viewBox="0 0 21 22" fill="none" xmlns="http://www.w3.org/2000/svg">
<path d="M11.6691 15.9128C15.2278 16.7599 16.48 13.7161 15.8526 12.5799C15.6013 12.1265 13.343 11.2558 13.2332 11.2136C12.2631 10.8603 11.9046 11.5194 11.2324 12.3866C9.94158 11.7408 9.07606 11.232 8.18682 9.78569C8.23691 9.7233 8.30369 9.64949 8.35378 9.59326C8.66483 9.24529 9.24741 8.59682 8.85024 7.80335C8.51633 7.13818 8.35026 6.67423 8.22812 6.33417C7.87401 5.34916 7.60425 5.08203 6.38462 5.08203C5.1149 5.08203 4.12988 6.75068 4.12988 8.18734C4.12988 11.3234 8.34587 15.1194 11.6691 15.9128ZM6.38462 6.40008C6.64823 6.40008 6.78179 6.40886 6.84857 6.41941C6.99092 6.7208 7.13502 7.34995 7.66576 8.32881C7.58316 8.63724 6.4101 9.3604 6.95401 10.2953C8.06556 12.1828 9.17799 12.8374 10.7719 13.63C11.8334 14.1098 12.1726 13.2407 12.8457 12.4771C13.1576 12.6037 14.2103 13.0694 14.6725 13.3031C14.6312 14.2134 13.7525 15.0535 11.9749 14.6299C8.92405 13.9015 5.44705 10.4693 5.44705 8.18647C5.44793 7.31831 6.05686 6.40008 6.38462 6.40008Z" fill="white"/>
<path d="M0.0283717 20.3142C-0.0867375 20.7307 0.2252 21.1481 0.663669 21.1481C0.821834 21.1481 0.563498 21.1885 5.80228 19.8301C7.93488 20.9161 9.55608 20.8819 10.5912 20.9794C19.8658 20.9794 24.4087 9.66794 18.0258 3.08651C9.27665 -5.37006 -4.34929 5.13914 1.35257 15.4999L0.0283717 20.3142ZM16.9767 3.90721C17.1287 4.18488 21.4888 8.11704 19.0609 13.9929C17.5663 17.6131 14.1174 19.8441 10.2529 19.635C7.10891 19.4601 6.29523 18.3372 5.71617 18.4909L1.60124 19.5629L2.69521 15.5877C2.74266 15.4173 2.71894 15.2354 2.63107 15.0825C-2.62617 6.01081 9.26171 -3.31655 16.9767 3.90721Z" fill="white"/>
</svg>
